<?xml version="1.0" ?><svg id="Layer_1" style="enable-background:new 0 0 512 512;" version="1.1" viewBox="0 0 512 512" xml:space="preserve" xmlns="http://www.w3.org/2000/svg" xmlns:xlink="http://www.w3.org/1999/xlink"><style type="text/css">
	.st0{fill:#F1747B;}
	.st1{fill:#D46A75;}
	.st2{fill:#33454B;}
	.st3{fill:#3F3F40;}
	.st4{fill:#ABBEAE;}
	.st5{fill:#18191D;}
	.st6{fill:#232528;}
	.st7{fill:#98B1B5;}
	.st8{fill:#FFFFFF;}
	.st9{fill:#06542B;}
	.st10{fill:#009348;}
	.st11{fill:#AD774B;}
	.st12{fill:#EDB17A;}
</style><g id="XMLID_59_"><circle class="st0" cx="256" cy="256" id="XMLID_44_" r="256"/><path class="st1" d="M512,256c0-10.1-0.6-20-1.7-29.8c-52.3-52.4-110.4-110.3-111.5-111.1c-4-5.5-10.5-9.1-17.9-9.1   H131c-12.2,0-22,9.9-22,22v256c0,7.3,3.6,13.9,9.1,17.9c0.9,1.2,62.9,63.4,108.1,108.4c9.8,1.1,19.7,1.7,29.8,1.7   C397.4,512,512,397.4,512,256z" id="XMLID_63_"/><g id="XMLID_3587_"><g id="XMLID_3784_"><path class="st2" d="M381,406H131c-12.2,0-22-9.9-22-22V128c0-12.2,9.9-22,22-22H381c12.2,0,22,9.9,22,22v256     C403,396.1,393.1,406,381,406z" id="XMLID_3788_"/><rect class="st3" height="50.1" id="XMLID_3787_" width="261.8" x="125.1" y="137.7"/><rect class="st4" height="34.2" id="XMLID_3786_" width="246" x="133" y="145.6"/><polygon class="st5" id="XMLID_3785_" points="386.9,187.8 379,179.9 379,145.6 386.9,137.7    "/></g><polygon class="st5" id="XMLID_3783_" points="125.1,187.8 133,179.9 133,145.6 125.1,137.7   "/><g id="XMLID_3777_"><g id="XMLID_3780_"><rect class="st6" height="25.9" id="XMLID_3782_" width="38.1" x="127.6" y="241.7"/><rect class="st7" height="25.9" id="XMLID_3781_" width="38.1" x="126.7" y="240.7"/></g><path class="st8" d="M148.6,260.9h-2.6v-11.1l-2,0v-2l4.7-0.5V260.9z" id="XMLID_3778_"/></g><g id="XMLID_3771_"><g id="XMLID_3774_"><rect class="st6" height="25.9" id="XMLID_3776_" width="38.1" x="182.5" y="241.7"/><rect class="st7" height="25.9" id="XMLID_3775_" width="38.1" x="181.5" y="240.7"/></g><path class="st8" d="M205.2,260.9h-8.1v-2l4-4.5c0.5-0.7,0.9-1.2,1-1.6c0.1-0.4,0.2-0.9,0.2-1.5     c0-0.6-0.1-1.1-0.3-1.4c-0.2-0.3-0.5-0.5-1-0.5c-0.4,0-0.8,0.2-1,0.6c-0.2,0.4-0.4,0.9-0.4,1.6h-2.6l0-0.1c0-1.2,0.3-2.1,1.1-2.9     c0.7-0.8,1.7-1.2,2.9-1.2c1.3,0,2.2,0.3,2.9,1c0.7,0.7,1,1.7,1,2.9c0,0.9-0.2,1.7-0.6,2.4c-0.4,0.7-1.1,1.6-2,2.6l-1.9,2.6h4.8     V260.9z" id="XMLID_3772_"/></g><g id="XMLID_3765_"><g id="XMLID_3768_"><rect class="st6" height="25.9" id="XMLID_3770_" width="38.1" x="237.4" y="241.7"/><rect class="st7" height="25.9" id="XMLID_3769_" width="38.1" x="236.4" y="240.7"/></g><path class="st8" d="M256,253c0.4,0,0.8-0.2,1-0.5c0.2-0.3,0.3-0.8,0.3-1.4c0-0.5-0.1-1-0.4-1.3     c-0.2-0.3-0.6-0.5-1.1-0.5c-0.4,0-0.6,0.2-0.9,0.5c-0.2,0.3-0.3,0.7-0.3,1.2h-2.6l0-0.1c0-1.1,0.3-1.9,1-2.6c0.7-0.7,1.6-1,2.7-1     c1.3,0,2.2,0.3,3,1c0.7,0.7,1.1,1.6,1.1,2.8c0,0.6-0.2,1.2-0.5,1.7c-0.3,0.5-0.7,0.9-1.2,1.2c0.6,0.3,1.1,0.7,1.4,1.2     c0.3,0.5,0.5,1.2,0.5,2c0,1.2-0.4,2.2-1.2,2.9c-0.8,0.7-1.8,1-3.1,1c-1.1,0-2-0.3-2.8-1c-0.8-0.7-1.2-1.6-1.1-2.9l0-0.1h2.6     c0,0.5,0.1,1,0.4,1.3c0.2,0.4,0.6,0.5,1,0.5c0.5,0,0.9-0.2,1.2-0.5c0.3-0.4,0.4-0.8,0.4-1.4c0-0.7-0.1-1.2-0.4-1.6     c-0.2-0.3-0.6-0.5-1.1-0.5h-1.6v-2H256z" id="XMLID_3766_"/></g><g id="XMLID_3758_"><g id="XMLID_3762_"><rect class="st6" height="25.9" id="XMLID_3764_" width="38.1" x="127.6" y="281.5"/><rect class="st7" height="25.9" id="XMLID_3763_" width="38.1" x="126.7" y="280.5"/></g><path class="st8" d="M149.2,296h1.2v2h-1.2v2.6h-2.6v-2.6h-4.3l-0.1-1.6l4.5-9.2h2.7V296z M144.4,296h2.1v-5.1     l-0.1,0l-0.2,0.5L144.4,296z" id="XMLID_3759_"/></g><g id="XMLID_3752_"><g id="XMLID_3755_"><rect class="st6" height="25.9" id="XMLID_3757_" width="38.1" x="182.5" y="281.5"/><rect class="st7" height="25.9" id="XMLID_3756_" width="38.1" x="181.5" y="280.5"/></g><path class="st8" d="M197.4,294.7l0.7-7.5h6.4v2.1h-4.2l-0.3,3.2c0.2-0.2,0.5-0.4,0.8-0.5     c0.3-0.1,0.6-0.2,0.9-0.2c1.1,0,1.9,0.4,2.5,1.2c0.6,0.8,0.9,1.9,0.9,3.4c0,1.3-0.3,2.4-1,3.2c-0.7,0.8-1.7,1.3-3.1,1.3     c-1.1,0-2-0.3-2.8-1c-0.8-0.7-1.1-1.5-1.1-2.7l0,0l2.5-0.1c0,0.6,0.1,1,0.4,1.3s0.5,0.5,0.9,0.5c0.5,0,0.9-0.2,1.1-0.6     c0.2-0.4,0.3-1,0.3-1.8c0-0.8-0.1-1.4-0.4-1.9c-0.2-0.5-0.6-0.7-1.1-0.7c-0.3,0-0.6,0.1-0.8,0.3c-0.2,0.2-0.3,0.5-0.4,0.8     L197.4,294.7z" id="XMLID_3753_"/></g><g id="XMLID_3745_"><g id="XMLID_3749_"><rect class="st6" height="25.9" id="XMLID_3751_" width="38.1" x="237.4" y="281.5"/><rect class="st7" height="25.9" id="XMLID_3750_" width="38.1" x="236.4" y="280.5"/></g><path class="st8" d="M256.4,287.1c0.5,0,0.9,0,1.3,0.1c0.4,0.1,0.8,0.2,1.2,0.4l-0.4,1.9     c-0.4-0.1-0.7-0.3-1-0.3c-0.3-0.1-0.6-0.1-1-0.1c-0.6,0-1,0.2-1.4,0.7c-0.4,0.5-0.5,1.2-0.5,2.1v0.9c0.3-0.3,0.6-0.5,1-0.7     c0.4-0.2,0.8-0.2,1.2-0.2c1.1,0,2,0.4,2.6,1.1c0.6,0.8,0.9,1.9,0.9,3.3c0,1.3-0.4,2.4-1.1,3.2c-0.8,0.8-1.7,1.2-3,1.2     c-1.2,0-2.2-0.4-3-1.3c-0.8-0.9-1.2-2-1.2-3.5V292c0-1.5,0.4-2.7,1.3-3.6C254,287.5,255.1,287.1,256.4,287.1z M256,294     c-0.4,0-0.7,0.1-0.9,0.2c-0.2,0.1-0.4,0.3-0.6,0.5v1.4c0,0.9,0.1,1.6,0.4,2c0.3,0.5,0.6,0.7,1.1,0.7c0.5,0,0.8-0.2,1.1-0.7     c0.3-0.5,0.4-1.1,0.4-1.8c0-0.8-0.1-1.4-0.4-1.8C256.9,294.2,256.5,294,256,294z" id="XMLID_3746_"/></g><g id="XMLID_3739_"><g id="XMLID_3742_"><rect class="st6" height="25.9" id="XMLID_3744_" width="38.1" x="127.6" y="321.4"/><rect class="st7" height="25.9" id="XMLID_3743_" width="38.1" x="126.7" y="320.4"/></g><path class="st8" d="M150.5,329.2c-1.3,2.1-2.2,3.6-2.7,4.7c-0.5,1-0.7,2.5-0.7,4.6v2.1h-2.6v-2.1     c0-2,0.3-3.7,0.9-4.9c0.6-1.3,1.5-2.7,2.5-4.3h-6.1v-2h8.6V329.2z" id="XMLID_3740_"/></g><g id="XMLID_3731_"><g id="XMLID_3736_"><rect class="st6" height="25.9" id="XMLID_3738_" width="38.1" x="182.5" y="321.4"/><rect class="st7" height="25.9" id="XMLID_3737_" width="38.1" x="181.5" y="320.4"/></g><path class="st8" d="M204.9,330.6c0,0.7-0.2,1.3-0.5,1.8c-0.3,0.5-0.7,0.9-1.3,1.2c0.6,0.3,1.1,0.7,1.5,1.3     c0.4,0.6,0.6,1.2,0.6,1.9c0,1.2-0.4,2.2-1.1,2.9c-0.8,0.7-1.7,1-2.9,1c-1.2,0-2.3-0.3-3-1c-0.8-0.7-1.2-1.7-1.2-2.9     c0-0.7,0.2-1.4,0.6-1.9c0.4-0.6,0.9-1,1.6-1.3c-0.6-0.3-1-0.7-1.3-1.2c-0.3-0.5-0.5-1.1-0.5-1.8c0-1.2,0.4-2.1,1.1-2.7     c0.7-0.6,1.6-1,2.8-1c1.1,0,2,0.3,2.7,1C204.6,328.6,204.9,329.5,204.9,330.6z M202.6,336.7c0-0.6-0.1-1.1-0.4-1.5     c-0.3-0.4-0.6-0.6-1-0.6c-0.5,0-0.8,0.2-1.1,0.6c-0.3,0.4-0.4,0.9-0.4,1.5c0,0.6,0.1,1.1,0.4,1.5c0.3,0.4,0.7,0.5,1.1,0.5     c0.4,0,0.8-0.2,1-0.5S202.6,337.3,202.6,336.7z M202.3,330.7c0-0.5-0.1-1-0.3-1.3c-0.2-0.3-0.5-0.5-0.8-0.5     c-0.4,0-0.7,0.2-0.9,0.5c-0.2,0.3-0.3,0.7-0.3,1.3c0,0.6,0.1,1,0.3,1.3c0.2,0.3,0.5,0.5,0.9,0.5c0.3,0,0.6-0.2,0.8-0.5     C202.2,331.8,202.3,331.3,202.3,330.7z" id="XMLID_3732_"/></g><g id="XMLID_3724_"><g id="XMLID_3728_"><rect class="st6" height="25.9" id="XMLID_3730_" width="38.1" x="237.4" y="321.4"/><rect class="st7" height="25.9" id="XMLID_3729_" width="38.1" x="236.4" y="320.4"/></g><path class="st8" d="M255.7,338.7c0.5,0,0.9-0.2,1.3-0.7c0.3-0.4,0.5-1.1,0.5-1.9V335c-0.3,0.4-0.6,0.6-0.9,0.8     c-0.3,0.2-0.7,0.3-1.1,0.3c-1.1,0-1.9-0.4-2.6-1.2c-0.6-0.8-0.9-1.9-0.9-3.3c0-1.3,0.4-2.4,1.1-3.3c0.8-0.9,1.7-1.3,2.9-1.3     c1.2,0,2.2,0.4,2.9,1.3s1.1,2,1.1,3.5v4.5c0,1.4-0.4,2.5-1.2,3.3c-0.8,0.8-1.9,1.2-3.2,1.2c-0.4,0-0.8,0-1.3-0.1     c-0.4-0.1-0.9-0.2-1.2-0.4l0.4-1.9c0.3,0.2,0.7,0.3,1,0.3C254.9,338.7,255.3,338.7,255.7,338.7z M255.9,334.2     c0.3,0,0.6-0.1,0.9-0.3c0.3-0.2,0.5-0.4,0.6-0.7v-1.7c0-0.8-0.1-1.5-0.4-1.9c-0.3-0.4-0.6-0.7-1-0.7c-0.4,0-0.8,0.3-1,0.8     c-0.3,0.5-0.4,1.1-0.4,1.9c0,0.8,0.1,1.4,0.3,1.9C255.1,333.9,255.5,334.2,255.9,334.2z" id="XMLID_3725_"/></g><g id="XMLID_3717_"><g id="XMLID_3721_"><rect class="st6" height="25.9" id="XMLID_3723_" width="38.1" x="127.6" y="361.3"/><rect class="st7" height="25.9" id="XMLID_3722_" width="38.1" x="126.7" y="360.3"/></g><path class="st8" d="M150.3,375.7c0,1.5-0.4,2.7-1.1,3.6c-0.7,0.9-1.7,1.3-2.9,1.3s-2.2-0.4-2.9-1.3     s-1.1-2.1-1.1-3.6v-3.9c0-1.5,0.4-2.7,1.1-3.6c0.7-0.9,1.7-1.3,2.9-1.3c1.2,0,2.2,0.4,2.9,1.3c0.7,0.9,1.1,2.1,1.1,3.6V375.7z      M147.6,371.6c0-0.9-0.1-1.6-0.4-2.1c-0.3-0.5-0.6-0.7-1-0.7c-0.4,0-0.8,0.2-1,0.7c-0.2,0.5-0.4,1.2-0.4,2.1v4.1     c0,0.9,0.1,1.6,0.4,2.1c0.2,0.5,0.6,0.7,1,0.7c0.4,0,0.8-0.2,1-0.7c0.2-0.5,0.4-1.2,0.4-2.1V371.6z" id="XMLID_3718_"/></g><g id="XMLID_3706_"><g id="XMLID_3714_"><rect class="st6" height="25.9" id="XMLID_3716_" width="38.1" x="182.5" y="361.3"/><rect class="st7" height="25.9" id="XMLID_3715_" width="38.1" x="181.5" y="360.3"/></g><g id="XMLID_3707_"><path class="st8" d="M199.6,375.7c0,1.5-0.4,2.7-1.1,3.6c-0.7,0.9-1.7,1.3-2.9,1.3c-1.2,0-2.2-0.4-2.9-1.3      c-0.7-0.9-1.1-2.1-1.1-3.6v-3.9c0-1.5,0.4-2.7,1.1-3.6c0.7-0.9,1.7-1.3,2.9-1.3c1.2,0,2.2,0.4,2.9,1.3s1.1,2.1,1.1,3.6V375.7z       M197,371.6c0-0.9-0.1-1.6-0.4-2.1c-0.3-0.5-0.6-0.7-1-0.7c-0.4,0-0.8,0.2-1,0.7c-0.2,0.5-0.4,1.2-0.4,2.1v4.1      c0,0.9,0.1,1.6,0.4,2.1c0.2,0.5,0.6,0.7,1,0.7c0.4,0,0.8-0.2,1-0.7c0.2-0.5,0.4-1.2,0.4-2.1V371.6z" id="XMLID_3711_"/><path class="st8" d="M210.7,375.7c0,1.5-0.4,2.7-1.1,3.6c-0.7,0.9-1.7,1.3-2.9,1.3c-1.2,0-2.2-0.4-2.9-1.3      c-0.7-0.9-1.1-2.1-1.1-3.6v-3.9c0-1.5,0.4-2.7,1.1-3.6c0.7-0.9,1.7-1.3,2.9-1.3c1.2,0,2.2,0.4,2.9,1.3c0.7,0.9,1.1,2.1,1.1,3.6      V375.7z M208.1,371.6c0-0.9-0.1-1.6-0.4-2.1c-0.3-0.5-0.6-0.7-1-0.7c-0.4,0-0.8,0.2-1,0.7c-0.2,0.5-0.4,1.2-0.4,2.1v4.1      c0,0.9,0.1,1.6,0.4,2.1c0.2,0.5,0.6,0.7,1,0.7c0.4,0,0.8-0.2,1-0.7c0.2-0.5,0.4-1.2,0.4-2.1V371.6z" id="XMLID_3708_"/></g></g><g id="XMLID_3702_"><g id="XMLID_3703_"><rect class="st9" height="25.9" id="XMLID_3705_" width="38.1" x="292.3" y="201.8"/><rect class="st10" height="25.9" id="XMLID_3704_" width="38.1" x="291.3" y="200.8"/></g></g><g id="XMLID_3698_"><g id="XMLID_3699_"><rect class="st11" height="25.9" id="XMLID_3701_" width="38.1" x="347.2" y="201.8"/><rect class="st12" height="25.9" id="XMLID_3700_" width="38.1" x="346.2" y="200.8"/></g></g><g id="XMLID_3691_"><g id="XMLID_3695_"><polygon class="st11" id="XMLID_3697_" points="330.5,387.2 292.3,387.2 292.8,322.4 330.9,322.4     "/><polygon class="st12" id="XMLID_3696_" points="329.5,386.2 291.3,386.2 291.8,321.4 330,321.4     "/></g><g id="XMLID_3692_"><rect class="st8" height="2.3" id="XMLID_3694_" width="14.3" x="304" y="353.1"/><rect class="st8" height="14.3" id="XMLID_3693_" width="2.3" x="310" y="347.1"/></g></g><g id="XMLID_3684_"><g id="XMLID_3688_"><rect class="st6" height="25.9" id="XMLID_3690_" width="38.1" x="292.3" y="281.5"/><rect class="st7" height="25.9" id="XMLID_3689_" width="38.1" x="291.3" y="280.5"/></g><g id="XMLID_3685_"><rect class="st8" height="2.3" id="XMLID_3687_" transform="matrix(0.7071 0.7071 -0.7071 0.7071 298.9357 -133.726)" width="14.3" x="303.7" y="292.8"/><rect class="st8" height="2.3" id="XMLID_3686_" transform="matrix(-0.7071 0.7071 -0.7071 -0.7071 738.5997 282.0305)" width="14.3" x="303.7" y="292.8"/></g></g><g id="XMLID_3679_"><g id="XMLID_3681_"><rect class="st6" height="25.9" id="XMLID_3683_" width="38.1" x="292.3" y="241.7"/><rect class="st7" height="25.9" id="XMLID_3682_" width="38.1" x="291.3" y="240.7"/></g><rect class="st8" height="2.3" id="XMLID_3680_" transform="matrix(-0.7071 0.7071 -0.7071 -0.7071 710.412 213.9794)" width="14.3" x="303.7" y="253"/></g><g id="XMLID_3674_"><g id="XMLID_3676_"><rect class="st6" height="25.9" id="XMLID_3678_" width="38.1" x="347.2" y="321.4"/><rect class="st7" height="25.9" id="XMLID_3677_" width="38.1" x="346.2" y="320.4"/></g><rect class="st8" height="2.3" id="XMLID_3675_" width="14.3" x="358.6" y="332.7"/></g><g id="XMLID_3667_"><g id="XMLID_3671_"><rect class="st6" height="25.9" id="XMLID_3673_" width="38.1" x="347.2" y="361.3"/><rect class="st7" height="25.9" id="XMLID_3672_" width="38.1" x="346.2" y="360.3"/></g><g id="XMLID_3668_"><rect class="st8" height="2.3" id="XMLID_3670_" width="14.3" x="358.6" y="369.1"/><rect class="st8" height="2.3" id="XMLID_3669_" width="14.3" x="358.6" y="376"/></g></g><g id="XMLID_3662_"><g id="XMLID_3664_"><rect class="st6" height="25.9" id="XMLID_3666_" width="38.1" x="237.4" y="361.3"/><rect class="st7" height="25.9" id="XMLID_3665_" width="38.1" x="236.4" y="360.3"/></g><circle class="st8" cx="256" cy="373.7" id="XMLID_3663_" r="3.2"/></g><g id="XMLID_3650_"><g id="XMLID_3659_"><rect class="st6" height="25.9" id="XMLID_3661_" width="38.1" x="347.2" y="241.7"/><rect class="st7" height="25.9" id="XMLID_3660_" width="38.1" x="346.2" y="240.7"/></g><g id="XMLID_3651_"><rect class="st8" height="2.3" id="XMLID_3658_" transform="matrix(-0.7071 0.7071 -0.7071 -0.7071 804.1141 175.1668)" width="14.3" x="358.6" y="253"/><path class="st8" d="M361.9,246.9c-1.4,0-2.5,1.5-2.5,3.3c0,1.8,1.1,3.3,2.5,3.3c1.4,0,2.5-1.5,2.5-3.3      C364.4,248.4,363.3,246.9,361.9,246.9z M361.9,251.7c-0.6,0-1.1-0.7-1.1-1.5c0-0.8,0.5-1.5,1.1-1.5c0.6,0,1.1,0.7,1.1,1.5      C363,251,362.5,251.7,361.9,251.7z" id="XMLID_3655_"/><path class="st8" d="M369.7,254.7c-1.4,0-2.5,1.5-2.5,3.3c0,1.8,1.1,3.3,2.5,3.3s2.5-1.5,2.5-3.3      C372.2,256.2,371.1,254.7,369.7,254.7z M369.7,259.5c-0.6,0-1.1-0.7-1.1-1.5s0.5-1.5,1.1-1.5c0.6,0,1.1,0.7,1.1,1.5      S370.3,259.5,369.7,259.5z" id="XMLID_3652_"/></g></g><g id="XMLID_3640_"><g id="XMLID_3647_"><rect class="st6" height="25.9" id="XMLID_3649_" width="38.1" x="347.2" y="281.5"/><rect class="st7" height="25.9" id="XMLID_3648_" width="38.1" x="346.2" y="280.5"/></g><g id="XMLID_3641_"><path class="st8" d="M362.1,293.6h-1.3V288l-1,0v-1l2.3-0.2V293.6z" id="XMLID_3645_"/><path class="st8" d="M369.5,297.2L369.5,297.2l0.7-1.8h1.7l-1.5,2.9l1.5,2.9h-1.7l-0.7-1.9h0l-0.7,1.9h-1.7      l1.5-2.9l-1.5-2.9h1.7L369.5,297.2z" id="XMLID_3643_"/><rect class="st8" height="2.3" id="XMLID_3642_" transform="matrix(-0.7071 0.7071 -0.7071 -0.7071 831.8246 243.7216)" width="14.3" x="358.3" y="293"/></g></g><g id="XMLID_3634_"><path class="st8" d="M358.7,214.1c0-1.2,0.3-2.2,0.9-3c0.6-0.8,1.4-1.1,2.5-1.1c1.1,0,1.9,0.4,2.5,1.1     c0.6,0.8,0.9,1.7,0.9,3v0.2c0,1.2-0.3,2.2-0.9,3c-0.6,0.8-1.4,1.1-2.5,1.1c-1.1,0-1.9-0.4-2.5-1.1c-0.6-0.8-0.9-1.7-0.9-3V214.1z      M360.8,214.3c0,0.7,0.1,1.3,0.3,1.8c0.2,0.4,0.5,0.7,1,0.7c0.4,0,0.7-0.2,0.9-0.7c0.2-0.4,0.3-1,0.3-1.8v-0.2     c0-0.7-0.1-1.3-0.3-1.8c-0.2-0.4-0.5-0.7-1-0.7c-0.4,0-0.8,0.2-1,0.7c-0.2,0.5-0.3,1-0.3,1.8V214.3z" id="XMLID_3637_"/><path class="st8" d="M368.6,210.1l0.1,1.1c0.2-0.4,0.5-0.7,0.9-0.9c0.3-0.2,0.7-0.3,1.1-0.3     c0.7,0,1.2,0.3,1.6,0.8s0.6,1.4,0.6,2.5v4.9h-2.1v-4.9c0-0.6-0.1-1-0.2-1.3c-0.1-0.3-0.4-0.4-0.7-0.4c-0.2,0-0.5,0.1-0.6,0.2     s-0.3,0.3-0.5,0.5v5.9h-2.1v-8H368.6z" id="XMLID_3635_"/></g><g id="XMLID_3626_"><path class="st8" d="M301.3,215.3c0-1.1,0.3-2,0.8-2.7c0.5-0.7,1.3-1,2.3-1c1,0,1.7,0.3,2.3,1     c0.5,0.7,0.8,1.6,0.8,2.7v0.2c0,1.1-0.3,2-0.8,2.7c-0.5,0.7-1.3,1-2.3,1c-1,0-1.7-0.3-2.3-1c-0.5-0.7-0.8-1.6-0.8-2.7V215.3z      M303.2,215.5c0,0.7,0.1,1.2,0.3,1.6c0.2,0.4,0.5,0.6,0.9,0.6c0.4,0,0.7-0.2,0.9-0.6c0.2-0.4,0.3-0.9,0.3-1.6v-0.2     c0-0.7-0.1-1.2-0.3-1.6c-0.2-0.4-0.5-0.6-0.9-0.6c-0.4,0-0.7,0.2-0.9,0.6c-0.2,0.4-0.3,0.9-0.3,1.6V215.5z" id="XMLID_3631_"/><path class="st8" d="M308.9,219v-6H308v-1.4h0.9v-0.8c0-0.8,0.2-1.4,0.7-1.9c0.4-0.4,1-0.7,1.8-0.7     c0.2,0,0.3,0,0.5,0c0.2,0,0.3,0.1,0.5,0.1l-0.2,1.4c-0.1,0-0.2,0-0.3,0c-0.1,0-0.2,0-0.3,0c-0.3,0-0.5,0.1-0.6,0.3     c-0.1,0.2-0.2,0.4-0.2,0.8v0.8h1.2v1.4h-1.2v6H308.9z" id="XMLID_3629_"/><path class="st8" d="M313.3,219v-6h-0.9v-1.4h0.9v-0.8c0-0.8,0.2-1.4,0.7-1.9c0.4-0.4,1-0.7,1.8-0.7     c0.2,0,0.3,0,0.5,0c0.2,0,0.3,0.1,0.5,0.1l-0.2,1.4c-0.1,0-0.2,0-0.3,0c-0.1,0-0.2,0-0.3,0c-0.3,0-0.5,0.1-0.6,0.3     c-0.1,0.2-0.2,0.4-0.2,0.8v0.8h1.2v1.4h-1.2v6H313.3z" id="XMLID_3627_"/></g><g id="XMLID_3613_"><path d="M328.4,165.6c0,2.2-0.5,3.9-1.6,5.2c-1.1,1.3-2.5,1.9-4.2,1.9c-1.7,0-3.1-0.6-4.2-1.9     c-1.1-1.3-1.6-3-1.6-5.2v-5.7c0-2.2,0.5-3.9,1.6-5.2c1.1-1.3,2.5-1.9,4.2-1.9c1.7,0,3.1,0.6,4.2,1.9c1.1,1.3,1.6,3,1.6,5.2V165.6     z M324.6,159.8c0-1.3-0.2-2.2-0.5-2.9s-0.9-1-1.5-1c-0.6,0-1.1,0.3-1.5,1c-0.4,0.7-0.5,1.7-0.5,2.9v5.9c0,1.3,0.2,2.3,0.5,3     c0.4,0.7,0.8,1,1.5,1c0.6,0,1.1-0.3,1.5-1c0.4-0.7,0.5-1.7,0.5-3V159.8z" id="XMLID_3623_"/><path d="M342.2,165.6c0,2.2-0.5,3.9-1.6,5.2c-1.1,1.3-2.5,1.9-4.2,1.9c-1.7,0-3.1-0.6-4.2-1.9     c-1.1-1.3-1.6-3-1.6-5.2v-5.7c0-2.2,0.5-3.9,1.6-5.2c1.1-1.3,2.5-1.9,4.2-1.9c1.7,0,3.1,0.6,4.2,1.9c1.1,1.3,1.6,3,1.6,5.2V165.6     z M338.4,159.8c0-1.3-0.2-2.2-0.5-2.9s-0.9-1-1.5-1c-0.6,0-1.1,0.3-1.5,1c-0.4,0.7-0.5,1.7-0.5,2.9v5.9c0,1.3,0.2,2.3,0.5,3     c0.4,0.7,0.8,1,1.5,1c0.6,0,1.1-0.3,1.5-1c0.4-0.7,0.5-1.7,0.5-3V159.8z" id="XMLID_3620_"/><path d="M356.1,165.6c0,2.2-0.5,3.9-1.6,5.2c-1.1,1.3-2.5,1.9-4.2,1.9c-1.7,0-3.1-0.6-4.2-1.9     c-1.1-1.3-1.6-3-1.6-5.2v-5.7c0-2.2,0.5-3.9,1.6-5.2s2.5-1.9,4.2-1.9c1.7,0,3.1,0.6,4.2,1.9c1.1,1.3,1.6,3,1.6,5.2V165.6z      M352.3,159.8c0-1.3-0.2-2.2-0.5-2.9s-0.9-1-1.5-1c-0.6,0-1.1,0.3-1.5,1c-0.4,0.7-0.5,1.7-0.5,2.9v5.9c0,1.3,0.2,2.3,0.5,3     c0.4,0.7,0.8,1,1.5,1c0.6,0,1.1-0.3,1.5-1c0.4-0.7,0.5-1.7,0.5-3V159.8z" id="XMLID_3617_"/><path d="M369.9,165.6c0,2.2-0.5,3.9-1.6,5.2c-1.1,1.3-2.5,1.9-4.2,1.9c-1.7,0-3.1-0.6-4.2-1.9     c-1.1-1.3-1.6-3-1.6-5.2v-5.7c0-2.2,0.5-3.9,1.6-5.2s2.5-1.9,4.2-1.9c1.7,0,3.1,0.6,4.2,1.9c1.1,1.3,1.6,3,1.6,5.2V165.6z      M366.1,159.8c0-1.3-0.2-2.2-0.5-2.9c-0.4-0.7-0.9-1-1.5-1c-0.6,0-1.1,0.3-1.5,1c-0.4,0.7-0.5,1.7-0.5,2.9v5.9     c0,1.3,0.2,2.3,0.5,3c0.4,0.7,0.8,1,1.5,1c0.6,0,1.1-0.3,1.5-1c0.4-0.7,0.5-1.7,0.5-3V159.8z" id="XMLID_3614_"/></g><g id="XMLID_3604_"><g id="XMLID_3610_"><rect class="st6" height="25.9" id="XMLID_3612_" width="38.1" x="182.5" y="201.8"/><rect class="st7" height="25.9" id="XMLID_3611_" width="38.1" x="181.5" y="200.8"/></g><g id="XMLID_3605_"><path class="st8" d="M201.1,216.2L201.1,216.2c0,1.2-0.3,2.2-0.9,2.8c-0.6,0.6-1.5,0.9-2.7,0.9      c-1.2,0-2.2-0.4-2.9-1.1c-0.7-0.7-1.1-1.8-1.1-3.1v-2.8c0-1.3,0.3-2.4,1-3.1c0.7-0.8,1.6-1.1,2.8-1.1c1.2,0,2.2,0.3,2.8,0.9      c0.7,0.6,1,1.5,1,2.7l0,0H199c0-0.7-0.1-1.2-0.4-1.6c-0.3-0.3-0.7-0.5-1.3-0.5c-0.5,0-1,0.2-1.2,0.7c-0.3,0.4-0.4,1.1-0.4,1.9      v2.9c0,0.8,0.1,1.5,0.4,1.9c0.3,0.4,0.7,0.7,1.3,0.7c0.5,0,0.9-0.2,1.2-0.5c0.2-0.3,0.4-0.8,0.4-1.6H201.1z" id="XMLID_3608_"/><path class="st8" d="M208.1,214.9h-3.4v3.2h4.1v1.7h-6.3v-11h6.3v1.7h-4.1v2.8h3.4V214.9z" id="XMLID_3606_"/></g></g><g id="XMLID_3598_"><g id="XMLID_3601_"><rect class="st6" height="25.9" id="XMLID_3603_" width="38.1" x="237.4" y="201.8"/><rect class="st7" height="25.9" id="XMLID_3602_" width="38.1" x="236.4" y="200.8"/></g><path class="st8" d="M259.8,216.2L259.8,216.2c0,1.2-0.3,2.2-0.9,2.8c-0.6,0.6-1.5,0.9-2.7,0.9     c-1.2,0-2.2-0.4-2.9-1.1c-0.7-0.7-1.1-1.8-1.1-3.1v-2.8c0-1.3,0.3-2.4,1-3.1c0.7-0.8,1.6-1.1,2.8-1.1c1.2,0,2.2,0.3,2.8,0.9     c0.7,0.6,1,1.5,1,2.7l0,0h-2.1c0-0.7-0.1-1.2-0.4-1.6c-0.3-0.3-0.7-0.5-1.3-0.5c-0.5,0-1,0.2-1.2,0.7c-0.3,0.4-0.4,1.1-0.4,1.9     v2.9c0,0.8,0.1,1.5,0.4,1.9c0.3,0.4,0.7,0.7,1.3,0.7c0.5,0,0.9-0.2,1.2-0.5c0.2-0.3,0.4-0.8,0.4-1.6H259.8z" id="XMLID_3599_"/></g><g id="XMLID_3588_"><g id="XMLID_3595_"><rect class="st6" height="25.9" id="XMLID_3597_" width="38.1" x="127.3" y="201.8"/><rect class="st7" height="25.9" id="XMLID_3596_" width="38.1" x="126.3" y="200.8"/></g><g id="XMLID_3589_"><path class="st8" d="M143.3,217.4h-2.8l-0.6,2.4h-2.3l3.2-11h2.3l3.2,11h-2.3L143.3,217.4z M140.9,215.7h1.9      l-0.9-3.5h0L140.9,215.7z" id="XMLID_3592_"/><path class="st8" d="M154.2,216.2L154.2,216.2c0,1.2-0.3,2.2-0.9,2.8c-0.6,0.6-1.5,0.9-2.7,0.9      c-1.2,0-2.2-0.4-2.9-1.1c-0.7-0.7-1.1-1.8-1.1-3.1v-2.8c0-1.3,0.3-2.4,1-3.1c0.7-0.8,1.6-1.1,2.8-1.1c1.2,0,2.2,0.3,2.8,0.9      c0.7,0.6,1,1.5,1,2.7l0,0h-2.1c0-0.7-0.1-1.2-0.4-1.6c-0.3-0.3-0.7-0.5-1.3-0.5c-0.5,0-1,0.2-1.2,0.7c-0.3,0.4-0.4,1.1-0.4,1.9      v2.9c0,0.8,0.1,1.5,0.4,1.9c0.3,0.4,0.7,0.7,1.3,0.7c0.5,0,0.9-0.2,1.2-0.5c0.2-0.3,0.4-0.8,0.4-1.6H154.2z" id="XMLID_3590_"/></g></g></g></g></svg>