<?xml version="1.0" ?><svg style="enable-background:new 0 0 512 512;" version="1.1" viewBox="0 0 512 512" xml:space="preserve" xmlns="http://www.w3.org/2000/svg" xmlns:xlink="http://www.w3.org/1999/xlink"><style type="text/css">
	.st0{fill:#232323;}
	.st1{fill:#111111;}
	.st2{fill:#FFFFFF;}
</style><g id="Edges"/><g id="Background_Bottom"><g><path d="M492.3,443.1c0,34.2-27.7,61.9-61.9,61.9H80.7c-34.2,0-61.9-27.7-61.9-61.9V93.4c0-34.2,27.7-61.9,61.9-61.9h349.7    c34.2,0,61.9,27.7,61.9,61.9V443.1z"/></g></g><g id="Background"><path class="st0" d="M492.3,418.4c0,34.2-27.7,61.9-61.9,61.9H80.7c-34.2,0-61.9-27.7-61.9-61.9V68.6c0-34.2,27.7-61.9,61.9-61.9   h349.7c34.2,0,61.9,27.7,61.9,61.9V418.4z"/></g><g id="Shadow"><path class="st1" d="M492.2,294.4l-85.9-85.9c-0.2-0.3-0.5-0.6-0.7-0.9c0,0-0.1,0-0.1,0.1l-1.5-1.5c0,0,0,0,0,0   c-0.1-0.2-0.2-0.4-0.3-0.6c-0.1-0.3-0.3-0.6-0.4-0.8c-0.1-0.2-0.2-0.4-0.4-0.6c-0.2-0.3-0.3-0.5-0.5-0.8c-0.1-0.2-0.3-0.4-0.4-0.5   c-0.2-0.2-0.4-0.5-0.6-0.7c-0.2-0.2-0.3-0.3-0.5-0.5c-0.2-0.2-0.5-0.4-0.7-0.6c-0.2-0.1-0.4-0.3-0.6-0.4c-0.1,0-0.1-0.1-0.2-0.2   l-135.6-90.4c-4.3-2.9-9.9-2.9-14.2,0l-135.6,90.4c-0.1,0-0.1,0.1-0.2,0.2c-0.2,0.1-0.4,0.3-0.6,0.4c-0.3,0.2-0.5,0.4-0.7,0.6   c-0.2,0.1-0.3,0.3-0.5,0.5c-0.2,0.2-0.4,0.5-0.6,0.7c-0.2,0.2-0.3,0.4-0.4,0.5c-0.2,0.3-0.4,0.5-0.5,0.8c-0.1,0.2-0.3,0.4-0.4,0.6   c-0.2,0.3-0.3,0.5-0.4,0.8c-0.1,0.2-0.2,0.4-0.3,0.6c-0.1,0.3-0.2,0.6-0.3,0.9c-0.1,0.2-0.1,0.4-0.2,0.6c-0.1,0.3-0.2,0.7-0.2,1.1   c0,0.2-0.1,0.4-0.1,0.6c-0.1,0.5-0.1,1.1-0.1,1.7v90.4c0,0.6,0,1.1,0.1,1.7c0,0.2,0.1,0.4,0.1,0.5c0.1,0.4,0.1,0.7,0.2,1.1   c0.1,0.2,0.1,0.4,0.2,0.6c0.1,0.3,0.2,0.6,0.3,0.9c0.1,0.2,0.2,0.4,0.3,0.6c0.1,0.3,0.3,0.6,0.4,0.9c0.1,0.2,0.2,0.4,0.4,0.6   c0.2,0.3,0.3,0.5,0.5,0.8c0.1,0.2,0.3,0.4,0.4,0.6c0.2,0.2,0.4,0.5,0.6,0.7c0.2,0.2,0.3,0.3,0.5,0.5c0.2,0.2,0.5,0.4,0.7,0.6   c0.2,0.1,0.4,0.3,0.6,0.4c0.1,0,0.1,0.1,0.2,0.2l0.8,0.5l168,168l147.8-0.3c34.2,0,61.9-27.7,61.9-61.9L492.2,294.4z"/></g><g id="Symbol"><path class="st2" d="M379.3,277.4l-31.9-21.3l31.9-21.3V277.4z M269.2,367.9v-59.5l55.3-37l44.6,29.8L269.2,367.9z    M256.5,286.2l-45.1-30.2l45.1-30.2l45.1,30.2L256.5,286.2z M243.7,367.9l-99.9-66.6l44.6-29.8l55.3,37V367.9z M133.6,234.7   l31.9,21.3l-31.9,21.3V234.7z M243.7,144.3v59.5l-55.3,37l-44.6-29.9L243.7,144.3z M269.2,144.3l99.9,66.6l-44.6,29.9l-55.3-37   V144.3z M404.7,209.2c0-0.2-0.1-0.4-0.1-0.6c-0.1-0.4-0.1-0.7-0.2-1.1c-0.1-0.2-0.1-0.4-0.2-0.6c-0.1-0.3-0.2-0.6-0.3-0.9   c-0.1-0.2-0.2-0.4-0.3-0.6c-0.1-0.3-0.3-0.6-0.4-0.8c-0.1-0.2-0.2-0.4-0.4-0.6c-0.2-0.3-0.3-0.5-0.5-0.8c-0.1-0.2-0.3-0.4-0.4-0.5   c-0.2-0.2-0.4-0.5-0.6-0.7c-0.2-0.2-0.3-0.3-0.5-0.5c-0.2-0.2-0.5-0.4-0.7-0.6c-0.2-0.1-0.4-0.3-0.6-0.4c-0.1,0-0.1-0.1-0.2-0.2   l-135.6-90.4c-4.3-2.9-9.9-2.9-14.2,0l-135.6,90.4c-0.1,0-0.1,0.1-0.2,0.2c-0.2,0.1-0.4,0.3-0.6,0.4c-0.3,0.2-0.5,0.4-0.7,0.6   c-0.2,0.1-0.3,0.3-0.5,0.5c-0.2,0.2-0.4,0.5-0.6,0.7c-0.2,0.2-0.3,0.4-0.4,0.5c-0.2,0.3-0.4,0.5-0.5,0.8c-0.1,0.2-0.3,0.4-0.4,0.6   c-0.2,0.3-0.3,0.5-0.4,0.8c-0.1,0.2-0.2,0.4-0.3,0.6c-0.1,0.3-0.2,0.6-0.3,0.9c-0.1,0.2-0.1,0.4-0.2,0.6c-0.1,0.3-0.2,0.7-0.2,1.1   c0,0.2-0.1,0.4-0.1,0.6c-0.1,0.5-0.1,1.1-0.1,1.7v90.4c0,0.6,0,1.1,0.1,1.7c0,0.2,0.1,0.4,0.1,0.5c0.1,0.4,0.1,0.7,0.2,1.1   c0.1,0.2,0.1,0.4,0.2,0.6c0.1,0.3,0.2,0.6,0.3,0.9c0.1,0.2,0.2,0.4,0.3,0.6c0.1,0.3,0.3,0.6,0.4,0.9c0.1,0.2,0.2,0.4,0.4,0.6   c0.2,0.3,0.3,0.5,0.5,0.8c0.1,0.2,0.3,0.4,0.4,0.6c0.2,0.2,0.4,0.5,0.6,0.7c0.2,0.2,0.3,0.3,0.5,0.5c0.2,0.2,0.5,0.4,0.7,0.6   c0.2,0.1,0.4,0.3,0.6,0.4c0.1,0,0.1,0.1,0.2,0.2l135.6,90.4c2.1,1.4,4.6,2.1,7.1,2.1c2.5,0,4.9-0.7,7.1-2.1l135.6-90.4   c0.1,0,0.1-0.1,0.2-0.2c0.2-0.1,0.4-0.3,0.6-0.4c0.2-0.2,0.5-0.4,0.7-0.6c0.2-0.2,0.3-0.3,0.5-0.5c0.2-0.2,0.4-0.5,0.6-0.7   c0.1-0.2,0.3-0.4,0.4-0.6c0.2-0.3,0.4-0.5,0.5-0.8c0.1-0.2,0.3-0.4,0.4-0.6c0.2-0.3,0.3-0.6,0.4-0.9c0.1-0.2,0.2-0.4,0.3-0.6   c0.1-0.3,0.2-0.6,0.3-0.9c0.1-0.2,0.1-0.4,0.2-0.6c0.1-0.4,0.2-0.7,0.2-1.1c0-0.2,0.1-0.4,0.1-0.5c0.1-0.6,0.1-1.1,0.1-1.7v-90.4   C404.8,210.3,404.8,209.7,404.7,209.2z" id="Codepen_1_"/></g></svg>