<?xml version="1.0" encoding="UTF-8"?>
<svg version="1.0" viewBox="0 0 581 581" xmlns="http://www.w3.org/2000/svg">
<g transform="translate(-108.63 -17.019)">
<path d="m204.23 298.99v-225.24h202.97 202.97v225.24 225.24h-202.97-202.97v-225.24z" fill="#fff"/>
<path d="m152.81 594.81c-19.721-5.1665-31.491-16.951-36.935-36.978-1.666-6.1293-1.7668-20.158-1.7668-246 0-226.3 0.09805-239.88 1.7786-246.44 4.2471-16.561 13.378-28.465 26.721-34.837 15.089-7.2056-3.2424-6.7276 258-6.7276 260.49 0 242.99-0.4421 257.53 6.5072 12.463 5.9546 21.213 17.318 26.173 33.993 1.6878 5.6738 1.7995 18.885 2.0548 242.96 0.29992 263.18 0.67019 247.65-6.2546 262.32-6.3018 13.344-18.318 22.377-34.262 25.755-5.7439 1.2172-42.315 1.4239-246.25 1.3918-232.55-0.0366-239.71-0.09317-246.8-1.9497zm293.55-214.73c0.2013-105.75 0.51144-133.25 1.5028-133.25 0.68704 0 31.172 29.925 67.744 66.5s66.833 66.5 67.247 66.5 0.75282-26.437 0.75282-58.748v-58.748l-89.748-89.752c-49.361-49.364-90.2-89.752-90.752-89.752-1.813 0-178.38 177.41-179.45 180.32-1.5103 4.0667-1.4425 115.32 0.07083 116.26 0.66168 0.40894 28.05-26.242 67.253-65.441 36.375-36.372 66.473-66.131 66.884-66.131s0.7472 58.98 0.7472 131.07c0 88.899 0.33488 131.69 1.0409 133.01 1.0096 1.8864 2.3271 1.9371 43.75 1.6843l42.709-0.26071 0.25365-133.25z"/>
</g>
</svg>
