<?xml version="1.0" encoding="UTF-8"?>
<svg width="50px" height="50px" version="1.1" viewBox="0 0 48 48" xmlns="http://www.w3.org/2000/svg">
<path d="m10 43c1.3984 0 2-0.89844 2-2.1016v-3.8984" fill="none" stroke="#78909C" stroke-linecap="round" stroke-miterlimit="10" stroke-width="2"/>
<path d="m40.699 15c0.19922-0.60156 0.30078-1.3008 0.30078-2 0-3.3008-2.6992-6-6-6-1.6992 0-3.1992 0.69922-4.3008 1.8984-0.89844-2.8984-3.5977-4.8984-6.6992-4.8984-3.1992 0-5.8008 2.1016-6.6992 5-0.90234-0.60156-2.1016-1-3.3008-1-3.3008 0-6 2.6992-6 6 0 0.30078 0 0.69922 0.10156 1z" fill="#CFD8DC"/>
<path d="m6 13h36v22h-36z" fill="#32C24D"/>
<path d="m26 24c0 1.1055-0.89453 2-2 2s-2-0.89453-2-2 0.89453-2 2-2 2 0.89453 2 2z" fill="#fff"/>
<path d="m34 24c0 1.1055-0.89453 2-2 2s-2-0.89453-2-2 0.89453-2 2-2 2 0.89453 2 2z" fill="#fff"/>
<path d="m18 24c0 1.1055-0.89453 2-2 2s-2-0.89453-2-2 0.89453-2 2-2 2 0.89453 2 2z" fill="#fff"/>
<path d="m12 37v-2" fill="none" stroke="#546E7A" stroke-miterlimit="10" stroke-width="2"/>
<path d="m16 43c1.3984 0 2-0.89844 2-2.1016v-3.8984" fill="none" stroke="#78909C" stroke-linecap="round" stroke-miterlimit="10" stroke-width="2"/>
<path d="m18 37v-2" fill="none" stroke="#546E7A" stroke-miterlimit="10" stroke-width="2"/>
<path d="m29 43c1.3984 0 2-0.89844 2-2.1016v-3.8984" fill="none" stroke="#78909C" stroke-linecap="round" stroke-miterlimit="10" stroke-width="2"/>
<path d="m31 37v-2" fill="none" stroke="#546E7A" stroke-miterlimit="10" stroke-width="2"/>
<path d="m35 43c1.3984 0 2-0.89844 2-2.1016v-3.8984" fill="none" stroke="#78909C" stroke-linecap="round" stroke-miterlimit="10" stroke-width="2"/>
<path d="m37 37v-2" fill="none" stroke="#546E7A" stroke-miterlimit="10" stroke-width="2"/>
</svg>
