<?xml version="1.0" encoding="UTF-8"?>
<!DOCTYPE svg  PUBLIC '-//W3C//DTD SVG 1.1//EN'  'http://www.w3.org/Graphics/SVG/1.1/DTD/svg11.dtd'>
<svg enable-background="new 0 0 1024 1024" version="1.1" viewBox="0 0 1024 1024" xml:space="preserve" xmlns="http://www.w3.org/2000/svg"><rect x="30.008" y="30" width="963.98" height="964" fill="none" stroke="#000" stroke-miterlimit="10" stroke-width="60"/><path d="m781.82 461.41c-62.012-105.13-163.97-208.93-351.57-160.28 0 0 82.99-67.321 195.08-28.168s-88.285-99.034-112.08-99.034-149.1 77.154-212.27 184.25c-61.886 104.91-98.845 245.88 36.026 383.78-20.256-9.355-100.81-52.479-120.1-154.24-22.113-116.65-41.646 125.97-29.751 146.58 11.896 20.614 143.16 92.299 265.68 91.758 121.62-0.537 261.94-37.213 314.15-222.22 2.037 22.302 4.953 113.54-73.432 181.11-89.922 77.521 129.9-26.987 141.79-47.603 11.895-20.613 6.497-174.19-53.521-275.94z" fill="#020202"/><path d="m724.31 489.62c-34.489-28.795-71.571-46.596-104.94-57.585-23.28-8.232-49.396-13.865-77.258-16.246-18.662-1.787-30.104-1.286-30.104-1.286h-1e-3s-11.44-0.501-30.103 1.286c-27.861 2.38-53.974 8.013-77.255 16.244-33.372 10.991-70.457 28.79-104.95 57.588 0 0-8.875 30.887 3.523 76.938 43.666 176.85 324.73 189.66 403.06 38.617 0.087-0.156 0.178-0.309 0.259-0.478 0.056-0.114 0.106-0.226 0.159-0.34 5.908-11.541 10.636-24.03 13.988-37.474 12.533-46.232 3.615-77.264 3.615-77.264zm-210.93 151.43c-56.601 0-102.49-45.758-102.49-102.2 0-12.84 2.382-25.123 6.715-36.442 6.507 15.81 22.056 26.943 40.21 26.943 24.008 0 43.472-19.462 43.472-43.472 0-18.779-11.911-34.778-28.588-40.854 12.47-5.385 26.225-8.373 40.679-8.373 56.602 0 102.49 45.756 102.49 102.2s-45.888 102.2-102.49 102.2z" fill="#fff"/></svg>
