<?xml version="1.0" encoding="UTF-8"?>
<!DOCTYPE svg  PUBLIC '-//W3C//DTD SVG 1.1//EN'  'http://www.w3.org/Graphics/SVG/1.1/DTD/svg11.dtd'>
<svg enable-background="new 0 0 50 50" version="1.1" viewBox="0 0 50 50" xml:space="preserve" xmlns="http://www.w3.org/2000/svg"><path d="m20.3 10.5c-3.7 1.3-6.9 4.1-8.7 7.6-0.6 1.2-1.1 2.5-1.3 3.9-0.7 3.3-0.2 6.9 1.3 9.9 1 2 2.4 3.7 4.2 5.1 1.6 1.3 3.5 2.3 5.6 2.8 2.6 0.7 5.3 0.7 7.8 0.1 2.3-0.5 4.5-1.6 6.3-3.3 1.9-1.7 3.2-3.9 3.9-6.4 0.8-2.6 0.9-5.4 0.4-8.1h-14.4v6h8.3c-0.3 1.9-1.5 3.7-3.1 4.7-1 0.7-2.2 1.1-3.4 1.3s-2.5 0.2-3.7 0-2.4-0.8-3.4-1.5c-1.6-1.1-2.9-2.8-3.5-4.7-0.7-1.9-0.7-4 0-6 0.5-1.3 1.2-2.6 2.2-3.6 1.2-1.3 2.8-2.2 4.6-2.5 1.5-0.3 3-0.3 4.5 0.2 1.2 0.4 2.4 1.1 3.3 1.9l2.8-2.8 1.5-1.5c-1.4-1.3-3.1-2.4-4.9-3.1-3.3-1.1-7-1.1-10.3 0z" fill="#fff"/><path d="m20.3 10.5c3.3-1.1 7-1.1 10.3 0.1 1.8 0.7 3.5 1.7 4.9 3.1l-1.5 1.5-2.8 2.8c-0.9-0.9-2.1-1.6-3.3-1.9-1.4-0.4-3-0.5-4.5-0.2-1.7 0.4-3.3 1.3-4.6 2.5-1 1-1.8 2.3-2.2 3.6-1.7-1.3-3.3-2.6-5-3.9 1.8-3.5 5-6.3 8.7-7.6z" fill="#EA4335"/><path d="m10.3 22c0.3-1.3 0.7-2.6 1.3-3.9 1.7 1.3 3.3 2.6 5 3.9-0.7 1.9-0.7 4 0 6-1.7 1.3-3.3 2.6-5 3.9-1.5-3.1-2-6.6-1.3-9.9z" fill="#FBBC05"/><path d="m25.3 22.1h14.4c0.5 2.7 0.4 5.5-0.4 8.1-0.7 2.4-2 4.6-3.9 6.4-1.6-1.3-3.2-2.5-4.9-3.8 1.6-1.1 2.7-2.8 3.1-4.7h-8.3v-6z" fill="#4285F4"/><path d="m11.6 31.9c1.7-1.3 3.3-2.6 5-3.9 0.6 1.9 1.9 3.6 3.5 4.7 1 0.7 2.2 1.2 3.4 1.5 1.2 0.2 2.4 0.2 3.7 0 1.2-0.2 2.4-0.7 3.4-1.3 1.6 1.3 3.2 2.5 4.9 3.8-1.8 1.6-3.9 2.7-6.3 3.3-2.6 0.6-5.3 0.6-7.8-0.1-2-0.5-3.9-1.5-5.6-2.8-1.7-1.5-3.2-3.3-4.2-5.2z" fill="#34A853"/><path d="M25,1C11.7,1,1,11.7,1,25s10.7,24,24,24s24-10.7,24-24S38.3,1,25,1z M25,44C14.5,44,6,35.5,6,25S14.5,6,25,6  s19,8.5,19,19S35.5,44,25,44z" fill="#4285F4"/></svg>
