<?xml version="1.0" encoding="UTF-8"?>
<!DOCTYPE svg  PUBLIC '-//W3C//DTD SVG 1.1//EN'  'http://www.w3.org/Graphics/SVG/1.1/DTD/svg11.dtd'>
<svg enable-background="new 0 0 512 512" version="1.1" viewBox="0 0 512 512" xml:space="preserve" xmlns="http://www.w3.org/2000/svg"><path d="m492.28 442.73c0 34.171-27.702 61.872-61.873 61.872h-349.74c-34.171 0-61.875-27.701-61.875-61.872v-349.74c0-34.171 27.704-61.873 61.875-61.873h349.74c34.171 0 61.873 27.701 61.873 61.873v349.74z" fill="#4F3072"/><path d="m492.28 417.99c0 34.172-27.702 61.873-61.873 61.873h-349.74c-34.171 0-61.875-27.701-61.875-61.873v-349.74c0-34.171 27.704-61.872 61.875-61.872h349.74c34.171 0 61.873 27.701 61.873 61.872v349.74z" fill="#7B519D"/><g fill="#603C83"><path d="m254.9 117.96c-1.308-0.949 0.284 0.382 0 0z"/><path d="m492.28 402.3v-117.79c-3.164-3.155-6.326-6.31-9.478-9.478-16.624-16.709-33.375-33.291-50-50-16.624-16.708-33.375-33.291-50-50-8.313-8.354-16.688-16.646-25-25-7.786-7.825-15.548-15.516-24.582-21.921-17.476-12.39-38.068-20.456-59.48-22.198-1.766-0.144-3.707-0.454-5.472-0.267-0.971 0.103-1.956 0.049-2.929-0.011-2.167-0.134-4.376-0.385-6.534-0.022-2.177 0.365-4.025 1.509-4.973 3.556-1.245 2.689-1.598 6.854 1.073 8.793 0.667 0.898 1.602 1.622 2.364 2.437 0.799 0.854 1.688 1.876 2.636 2.563 0.668 0.898 1.602 1.622 2.364 2.437 0.799 0.854 1.688 1.876 2.636 2.563 0.668 0.898 1.602 1.622 2.364 2.437 0.799 0.854 1.688 1.876 2.636 2.563 0.705 0.948 1.706 1.827 2.563 2.638 0.804 0.759 1.812 1.554 2.482 2.427-3.008-0.458-6.819-0.99-9.352 1.133-2.67 2.239-3.552 7.582-1.46 10.433 0.547 0.745 1.334 1.512 2.053 2.077 0.745 0.981 1.801 1.961 2.727 2.773 0.969 0.851 1.825 1.85 2.74 2.759 0.916 0.909 1.906 1.775 2.758 2.743 0.821 0.933 1.797 1.959 2.775 2.726 0.745 0.981 1.801 1.961 2.727 2.773 2.009 1.763 3.837 3.819 5.71 5.727-4.085-0.259-9.634-0.109-11.761 4.069-0.983 1.933-1.574 4.627-0.5 6.643 0.429 0.805 35.197 35.377 35.558 35.813 0.436 0.527 0.677 0.899 0.978 1.523 0.623 1.291 1.569 2.247 2.567 3.247 2.071 2.074 168.06 168.13 179.81 179.84z"/></g><path d="m491.94 424.47s-304.3-304.04-304.63-304.36c-4.759-4.826-9.075-8.304-12.257-9.474-5.664-2.084-11.304-1.949-17.066-0.012-32.095 10.793-45.388 37.188-32.657 68.441 19.072 46.824 45.428 86.498 78.588 119.42l181.38 181.38h45.104c31.981-1e-3 58.292-24.268 61.532-55.393z" fill="#603C83"/><g clip-rule="evenodd" fill="#fff" fill-rule="evenodd"><path d="m369.75 304.7c-8.397-6.76-17.371-12.828-26.204-19.027-17.617-12.373-33.73-13.334-46.876 6.572-7.382 11.176-17.716 11.665-28.521 6.762-29.789-13.506-52.791-34.318-66.265-64.595-5.96-13.395-5.882-25.405 8.064-34.879 7.383-5.01 14.822-10.939 14.227-21.887-0.777-14.275-35.437-61.981-49.124-67.016-5.664-2.084-11.304-1.949-17.066-0.012-32.095 10.793-45.388 37.188-32.657 68.441 37.98 93.242 104.82 158.15 196.83 197.77 5.245 2.256 11.073 3.158 14.024 3.967 20.947 0.211 45.486-19.971 52.573-40 6.823-19.269-7.597-26.918-19.003-36.099z"/><path d="m266.59 120.19c67.264 10.344 98.285 42.328 106.85 110.08 0.794 6.258-1.537 15.674 7.391 15.848 9.331 0.178 7.083-9.099 7.161-15.363 0.789-63.806-54.846-122.96-119.46-125.14-4.875 0.701-14.962-3.362-15.591 7.564-0.419 7.367 8.073 6.156 13.646 7.013z"/><path d="m279.74 138.77c-6.47-0.779-15.011-3.828-16.523 5.15-1.578 9.422 7.941 8.465 14.058 9.834 41.544 9.285 56.009 24.406 62.849 65.615 0.999 6.008-0.986 15.359 9.224 13.809 7.567-1.152 4.834-9.168 5.467-13.85 0.335-39.563-33.567-75.574-75.075-80.558z"/><path d="m283.56 171.12c-4.319 0.107-8.558 0.574-10.145 5.189-2.384 6.898 2.631 8.543 7.736 9.363 17.042 2.736 26.011 12.785 27.713 29.779 0.46 4.613 3.387 8.35 7.843 7.824 6.174-0.736 6.732-6.232 6.543-11.451 0.305-19.093-21.275-41.161-39.69-40.704z"/></g></svg>
