<?xml version="1.0" encoding="UTF-8"?>
<!DOCTYPE svg  PUBLIC '-//W3C//DTD SVG 1.1//EN'  'http://www.w3.org/Graphics/SVG/1.1/DTD/svg11.dtd'>
<svg enable-background="new 0 0 32 32" version="1.1" viewBox="0 0 32 32" xml:space="preserve" xmlns="http://www.w3.org/2000/svg"><g fill="#515151"><path d="m16.522 13.348c1.746-3.062 1.32-7.023-1.29-9.634-3.132-3.131-8.206-3.13-11.337 0s-3.131 8.206 0 11.336c2.572 2.573 6.457 3.027 9.498 1.371l4.512 4.513 3.102-3.104-4.485-4.482zm-3.107-0.117c-2.127 2.127-5.575 2.127-7.701 0-2.127-2.125-2.127-5.573 0-7.699 2.126-2.127 5.574-2.127 7.701 0 2.126 2.126 2.126 5.574 0 7.699z"/><path d="m29.733 24.832l-5.775-5.775c-0.471-0.472-1.241-0.472-1.711 0l-3.209 3.208c-0.47 0.47-0.47 1.241 0 1.711l5.775 5.774c0.471 0.472 1.24 0.472 1.711 0l3.209-3.207c0.47-0.473 0.47-1.241 0-1.711z"/></g></svg>
