<?xml version="1.0" encoding="UTF-8"?>
<svg enable-background="new 0 0 64 64" version="1.1" viewBox="0 0 64 64" xml:space="preserve" xmlns="http://www.w3.org/2000/svg"><circle cx="32" cy="32" r="32" fill="#E0995E"/><g opacity=".2"><polygon points="48 26 48 18 16 18 16 26 16 50 48 50" fill="#231F20"/><path d="m48 14h-32c-2.209 0-4 1.791-4 4v32c0 2.209 1.791 4 4 4h32c2.209 0 4-1.791 4-4v-32c0-2.209-1.791-4-4-4z" fill="#231F20"/></g><path d="M16,50c-1.103,0-2-0.897-2-2V16c0-1.103,0.897-2,2-2h32c1.103,0,2,0.897,2,2v32c0,1.103-0.897,2-2,2H16z" fill="#77B3D4"/><path d="m48 16v32h-32v-32h32m0-4h-32c-2.209 0-4 1.791-4 4v32c0 2.209 1.791 4 4 4h32c2.209 0 4-1.791 4-4v-32c0-2.209-1.791-4-4-4z" fill="#fff"/><rect x="16" y="44" width="32" height="4" fill="#fff"/><path d="m13.99 44h34.896v-2.921s-1.706-2.977-3.286-4.843c-1.176-1.388-2.932-1.78-4.464-0.076l-2.752 2.643-5.999-7.629c-2.234-2.841-5.89-2.841-8.124 0l-10.271 12.826z" fill="#4F5D73"/><circle cx="40" cy="24" r="3" fill="#F5CF87"/><path d="m48 16v32h-32v-32h32m0-4h-32c-2.209 0-4 1.791-4 4v32c0 2.209 1.791 4 4 4h32c2.209 0 4-1.791 4-4v-32c0-2.209-1.791-4-4-4z" fill="#fff"/></svg>
