<?xml version="1.0" encoding="UTF-8"?>
<!DOCTYPE svg  PUBLIC '-//W3C//DTD SVG 1.1//EN'  'http://www.w3.org/Graphics/SVG/1.1/DTD/svg11.dtd'>
<svg enable-background="new 0 0 512 512" version="1.1" viewBox="0 0 512 512" xml:space="preserve" xmlns="http://www.w3.org/2000/svg"><path d="m512 432c0 44.183-35.816 80-80 80h-352c-44.183 0-80-35.817-80-80v-352c0-44.183 35.817-80 80-80h352c44.184 0 80 35.817 80 80v352z" fill="#FAA21D"/><path d="m353.4 186.2c12.949 12.738 20.985 30.445 20.985 50.033 0 4.81-0.486 9.506-1.407 14.045h11.216c26.406 0 47.813 21.381 47.813 47.758 0 26.375-21.406 47.755-47.813 47.755h-6.557l7.368-25.788-38-46.688-52.938 0.915-64.798-64.798-18.917 18.917 14.453 14.453-0.929 1.652-39.773-39.772-22.411 22.409 15.645 15.645-3.619 41.836-34.248-34.248-18.451 18.45 6.903 6.902v14.027l-32.637-32.636-6.425 77.355 32.056 32.323 145.26 145.26h165.83c44.184 0 80-35.817 80-80v-87.501l-158.6-158.3z" fill="#BA5800"/><clipPath/><g fill="#fff"><path d="m229.18 209.43c-7.229-3.717-15.189-6.062-23.59-6.721v143.08h23.59v-136.35z"/><path d="M95.238,257.064C81.317,265.413,72,280.635,72,298.033c0,17.396,9.317,32.617,23.238,40.968V257.064z"/><path d="m384.19 250.28h-11.216c0.921-4.539 1.407-9.235 1.407-14.045 0-38.787-31.479-70.23-70.313-70.23-21.586 0-40.893 9.721-53.789 25.014v154.77h133.91c26.406 0 47.813-21.38 47.813-47.755-1e-3 -26.377-21.407-47.758-47.813-47.758z"/><path d="m184.5 204.68c-8.815 2.387-16.917 6.68-23.906 12.439v128.67h23.906v-141.11z"/><path d="m139.5 250.32v95.467h-19.688c-1.172 0-2.331-0.058-3.48 0.212v-95.679h23.168z"/></g></svg>
