<?xml version="1.0" encoding="UTF-8"?>
<svg version="1.1" viewBox="0 0 60 60" xmlns="http://www.w3.org/2000/svg">
<g fill="none" fill-rule="evenodd">
<path d="m30 60c16.569 0 30-13.431 30-30s-13.431-30-30-30-30 13.431-30 30 13.431 30 30 30z" fill="#CE6F2D"/>
<path d="m36.934 32.013l-15.382-3.1666-0.78315 3.2837 17.677 3.6394 0.65003-2.7224 0.86723 0.4147 1.5745-3.4643-16.887-8.0742-1.5745 3.4634 13.857 6.6263zm6.9119 1.4488v10.385h-27.692v-10.385h3.4615v6.9231h20.769v-6.9231h3.4615zm-23.077 2.3077h18.462v3.4615h-18.462v-3.4615zm23.077-8.8064l-2.3035 3.0372-15.004-11.651 1.6662-2.1951h1.7201l13.921 10.809z" fill="#fff"/>
</g>
</svg>
