<?xml version="1.0" encoding="UTF-8"?>
<svg enable-background="new 0 0 64 64" version="1.1" viewBox="0 0 64 64" xml:space="preserve" xmlns="http://www.w3.org/2000/svg"><circle cx="32" cy="32" r="32" fill="#E0995E"/><g opacity=".2"><path d="m49.5 22.333h-5s-1.445 0-2.5-2.667c-0.537-1.357-1.12-2.666-2.5-2.666h-10c-1.38 0-1.98 1.301-2.5 2.667-1.015 2.667-2.5 2.667-2.5 2.667h-2.5c0-1.472-1.12-2.667-2.5-2.667h-2.5c-1.38 0-2.5 1.195-2.5 2.667-1.38 0-2.5 1.195-2.5 2.667v21.333c0 1.471 1.12 2.666 2.5 2.666h35c1.38 0 2.5-1.195 2.5-2.667v-21.333c0-1.472-1.12-2.667-2.5-2.667z" fill="#231F20"/></g><path d="m49.5 20h-5s-1.445 0.333-2.5-2.333c-0.537-1.358-1.12-2.667-2.5-2.667h-10c-1.38 0-1.98 1.301-2.5 2.667-1.015 2.666-2.5 2.333-2.5 2.333h-2.5c0-1.472-1.12-2-2.5-2h-2.5c-1.38 0-2.5 0.528-2.5 2-1.38 0-2.5 1.528-2.5 3v21.333c0 1.472 1.12 2.667 2.5 2.667h35c1.38 0 2.5-1.195 2.5-2.667v-21.333c0-1.472-1.12-3-2.5-3z" fill="#4F5D73"/><circle cx="34" cy="33" r="9" fill="#77B3D4"/><g opacity=".2"><path d="m34 46c-6.065 0-11-4.935-11-11s4.935-11 11-11 11 4.935 11 11-4.935 11-11 11zm0-18c-3.859 0-7 3.141-7 7s3.141 7 7 7 7-3.141 7-7-3.141-7-7-7z" fill="#231F20"/></g><path d="m34 43.5c-5.79 0-10.5-4.71-10.5-10.5s4.71-10.5 10.5-10.5 10.5 4.71 10.5 10.5-4.71 10.5-10.5 10.5zm0-18c-4.136 0-7.5 3.364-7.5 7.5s3.364 7.5 7.5 7.5 7.5-3.364 7.5-7.5-3.364-7.5-7.5-7.5z" fill="#fff"/></svg>
