<?xml version="1.0" encoding="UTF-8"?>
<svg enable-background="new 0 0 128 128" version="1.1" viewBox="0 0 128 128" xml:space="preserve" xmlns="http://www.w3.org/2000/svg"><style type="text/css">
	.st0{fill-rule:evenodd;clip-rule:evenodd;}
	.st1{fill-rule:evenodd;clip-rule:evenodd;fill:#7ACED7;}
</style><path class="st0" d="m19.8 0h82.9c1.1 0 2 0.9 2 2v124c0 1.1-0.9 2-2 2h-82.9c-1.1 0-2-0.9-2-2v-124c0-1.1 0.9-2 2-2zm23.2 4.8c-2.2 0-4 1.8-4 4s1.8 4 4 4 4-1.8 4-4-1.8-4-4-4zm9.5 2v4h17.5v-4h-17.5zm-1.8 100.5c-0.5 0-1 0.4-1 1v6.4c0 0.5 0.4 1 1 1h21.1c0.5 0 1-0.4 1-1v-6.4c0-0.5-0.4-1-1-1h-21.1zm-24.9-89.8v78.1h70.9v-78.1h-70.9z"/><path class="st1" d="m43 4.8c2.2 0 4 1.8 4 4s-1.8 4-4 4-4-1.8-4-4 1.8-4 4-4zm9.5 2h17.5v4h-17.5v-4zm-26.7 10.7h70.9v78.1h-70.9v-78.1zm24.9 89.8h21.1c0.5 0 1 0.4 1 1v6.4c0 0.5-0.4 1-1 1h-21.1c-0.5 0-1-0.4-1-1v-6.4c0-0.5 0.5-1 1-1z"/></svg>
