<?xml version="1.0" encoding="UTF-8"?>
<!DOCTYPE svg  PUBLIC '-//W3C//DTD SVG 1.1//EN'  'http://www.w3.org/Graphics/SVG/1.1/DTD/svg11.dtd'>
<svg clip-rule="evenodd" fill-rule="evenodd" image-rendering="optimizeQuality" shape-rendering="geometricPrecision" text-rendering="geometricPrecision" viewBox="0 0 2048 2048" xml:space="preserve" xmlns="http://www.w3.org/2000/svg"><defs><style type="text/css">
   <![CDATA[
    .fil2 {fill:none}
    .fil0 {fill:#00599D}
    .fil1 {fill:#FFFFFE}
   ]]>
  </style></defs><polygon class="fil0" points="1792 1775.7 1792 272.34 1792 256 1775.7 256 272.34 256 256 256 256 272.34 256 1775.7 256 1792 272.34 1792 1775.7 1792 1792 1792"/><path class="fil1" d="m754.82 1414.4l127.22-425.71 127.23 425.71 3.4925 11.681h12.145 9.5138 12.156l3.4807-11.745 195.21-658.78 3.3059-5.6256h123.41l-119.14 205.96-2.2346 8.1697v45.687 16.276l16.341 0.0011811 38.089 0.0023622v0.06378c22.291 0 41.384 3.3142 57.263 9.9248 15.256 6.3508 27.712 15.827 37.351 28.409l0.06378 0.064961c8.563 11.044 15.018 24.464 19.36 40.266 4.4988 16.376 6.7512 35.498 6.7512 57.372 0 19.782-2.1059 37.889-6.3189 54.325-4.1799 16.302-10.442 31.215-18.792 44.739-7.9358 12.849-16.57 22.364-25.889 28.532-8.5075 5.6315-17.813 8.452-27.905 8.452-10.729 0-20.66-1.7492-29.792-5.2406-9.1382-3.4925-17.627-8.7673-25.47-15.811h-0.06378c-8.2051-7.3524-15.719-16.238-22.544-26.649-6.9484-10.602-13.07-22.658-18.37-36.165l-6.0815-15.502-15.365 6.3744-78.071 32.385-13.987 5.8016 4.7315 14.368c8.3138 25.258 18.992 48.087 32.028 68.483 13.122 20.531 28.531 38.378 46.22 53.522 18.004 15.377 37.618 26.953 58.846 34.703 21.222 7.7492 43.863 11.633 67.918 11.633 32.002 0 61.193-6.5244 87.567-19.573 26.254-12.987 49.45-32.37 69.581-58.143h0.06378c19.74-25.362 34.556-53.667 44.424-84.914 9.7819-30.971 14.681-64.748 14.681-101.33 0-29.508-3.365-57.295-10.098-83.372-6.737-26.089-16.882-50.297-30.434-72.634-13.779-22.726-30.818-41.924-51.116-57.581-15.293-11.797-32.393-21.568-51.295-29.309l131.16-226.07 2.2346-8.1697v-46.65-16.342h-16.341-274.35-97.02-2.9291-12.183l-3.4547 11.746-122.5 416.37-126.64-428.54-111.46 0.43346h-21.896l6.2598 21 44.337 148.76-76.302 258.44-122.46-416.46-3.4536-11.744-12.184-0.0023622h-100-21.84l6.202 20.937 228.55 771.4 3.4807 11.745h12.157 9.5256 12.148l3.4902-11.681z"/><rect class="fil2" width="2048" height="2048"/></svg>
