<?xml version="1.0" encoding="UTF-8"?>
<svg width="512" height="512" enable-background="new 0 0 515.91 728.5" version="1.1" viewBox="0 0 512.00003 512" xml:space="preserve" xmlns="http://www.w3.org/2000/svg"><rect x="1.5e-5" width="512" height="512" rx="64" ry="64" fill="#282828"/><path d="m204.17 107.11 53.058 180.9 53.071-180.9h129.55v18.551l-47.009 93.564c19.009 6.1333 36.987 17.289 46.747 33.404 9.7555 16.147 16.413 35.12 16.413 56.884 0 26.916-6.2489 49.516-20.529 67.871-14.262 18.329-32.284 27.502-54.982 27.502-17.084 0-31.711-5.4489-44.409-16.316-12.689-10.893-21.947-25.618-28.04-44.231l30.036-12.458c4.4 11.258 10.218 20.102 17.431 26.6 7.1777 6.48 15.667 9.6933 25.427 9.6933 10.253 0 18.933-5.7378 26-17.222 7.0666-11.516 10.618-25.324 10.618-41.476 0-17.844-3.8089-37.102-11.356-46.862-8.7778-11.52-22.569-22.671-41.356-22.671h-25.262v-6.7822l61.849-92.849h-61.831l-3.5156 0.28889-75.2 248.78h-3.6533l-54.907-184.21-54.862 184.21h-3.6711l-87.787-282.28h38.404l53.058 181.19 35.849-121.99-17.564-59.2h38.422z" fill="#fff"/><path d="m18.696 493.29c11.568 11.568 27.576 18.712 45.304 18.712l384.01-0.029c35.456 0 63.988-28.532 63.988-63.988v-383.98c0-17.728-7.1446-33.736-18.713-45.304l-474.59 474.59z" fill-opacity=".30196"/></svg>
