<?xml version="1.0" encoding="UTF-8"?>
<svg version="1.1" viewBox="0 0 60 60" xmlns="http://www.w3.org/2000/svg">
<g fill="none" fill-rule="evenodd">
<path d="m30 60c16.569 0 30-13.431 30-30s-13.431-30-30-30-30 13.431-30 30 13.431 30 30 30z" fill="#CA4638"/>
<path d="m51.213 8.7868c5.4289 5.4289 8.7868 12.929 8.7868 21.213 0 16.569-13.431 30-30 30-8.2843 0-15.784-3.3579-21.213-8.7868l42.426-42.426z" fill="#000" fill-opacity=".4"/>
<path d="m41.717 28.846h-23.434c-3.7254 0-6.7446 2.7489-6.7446 6.4513v6.4594c0 3.7019 3.0192 6.7047 6.7446 6.7047h23.434c3.7246 0 6.745-3.0024 6.745-6.7047v-6.4084c0-3.7023-3.0204-6.5023-6.745-6.5023zm-18.838 5.2537h-2.2595v10.442h-2.1842v-10.442h-2.2591v-1.777h6.7028v1.777zm5.7878 10.888h-1.9375v-0.98792c-0.35983 0.36562-0.73011 0.64409-1.1187 0.83264-0.38681 0.19608-0.76144 0.28877-1.1256 0.28877-0.4499 0-0.78363-0.13349-1.0134-0.40364-0.22452-0.26976-0.34025-0.66865-0.34025-1.2082v-7.5369h1.9375v6.9162c0 0.21311 0.042206 0.3672 0.12009 0.46108 0.083976 0.098633 0.21668 0.14339 0.39856 0.14339 0.13967 0 0.32198-0.06219 0.53953-0.18855 0.22016-0.12755 0.41901-0.28877 0.60132-0.48445v-6.8477h1.9375v9.0152h8.702e-4zm8.1187-2.1089c0 0.63656-0.15142 1.1258-0.45556 1.4676-0.30197 0.34106-0.74316 0.75698-1.3166 0.75698-0.38159 0-1.2631-0.063775-1.5581-0.19608-0.29631-0.13032-0.57565-0.33195-0.82845-0.61042v0.69043h-1.9593v-12.467h1.9593v4.183c0.26237-0.27253 0.53953-0.48287 0.82975-0.62507 0.29631-0.14498 1.1374-0.2147 1.4385-0.2147 0.61394 0 1.0821-0.057833 1.405 0.3268 0.32459 0.38463 0.48515 0.94751 0.48515 1.6855v5.0026h4.351e-4zm7.0474-2.3304h-3.7067v1.6986c0 0.47415 0.061785 0.80333 0.18884 0.98752 0.12966 0.18459 0.34809 0.27411 0.65701 0.27411 0.32198 0 0.54606-0.078035 0.67442-0.23371 0.12575-0.15686 0.19275-0.49752 0.19275-1.0283v-0.41038h1.9941v0.46267c0 0.92375-0.24105 1.6201-0.73098 2.0899-0.48297 0.46425-1.2083 0.69637-2.1747 0.69637-0.86848 0-1.5529-0.24639-2.0507-0.74272-0.49602-0.49158-0.74882-1.1749-0.74882-2.0436v-4.0495c0-0.77916 0.27499-1.4201 0.82453-1.9117 0.54867-0.49158 1.2518-0.73678 2.1212-0.73678 0.88762 0 1.5694 0.22777 2.0459 0.6833 0.47601 0.45672 0.71401 1.1111 0.71401 1.9655v2.2987h-8.702e-4zm-2.8426-3.371c-0.3098 0-0.52866 0.081204-0.66398 0.24955-0.13619 0.15765-0.20015 0.42939-0.20015 0.80768v0.91107h1.713v-0.91107c0-0.37829-0.069182-0.65003-0.2045-0.80768-0.1314-0.16835-0.34983-0.24955-0.6444-0.24955zm-7.5526 0.11804c-0.13793 0-0.27629 0.027332-0.41118 0.087146-0.13488 0.057833-0.26759 0.15251-0.39943 0.2757v5.6162c0.15577 0.14498 0.31023 0.25668 0.45947 0.32086 0.14968 0.06219 0.30327 0.097049 0.46731 0.097049 0.23844 0 0.9555-0.063775 1.0673-0.19291 0.11008-0.12755 0.16752-0.33195 0.16752-0.62032v-4.6568c0-0.3058-0.066136-0.53555-0.20363-0.69321-0.14098-0.15528-0.88675-0.23371-1.1474-0.23371zm2.4336-10.689c0.39464 0 0.80103-0.11358 1.2196-0.33244 0.4219-0.22176 0.82577-0.54633 1.2099-0.96996v1.1503h2.1045v-10.391h-2.1045v7.8882c-0.19459 0.22591-0.41184 0.4112-0.64669 0.55876-0.23737 0.14591-0.43364 0.21803-0.58798 0.21803-0.19711 0-0.34138-0.054716-0.42693-0.16663-0.088071-0.10943-0.1363-0.28684-0.1363-0.53099v-7.9673h-2.0999v8.6849c0 0.61928 0.12414 1.0823 0.36822 1.389 0.24744 0.3113 0.61104 0.46923 1.1 0.46923zm-6.1893 0.11109c0.95536 0 1.7052-0.25368 2.2525-0.75897 0.54268-0.50861 0.81487-1.2021 0.81487-2.0916v-5.3692c0-0.79048-0.27847-1.4421-0.8308-1.9441-0.5582-0.50073-1.2707-0.75275-2.1414-0.75275-0.95536 0-1.7178 0.23834-2.2831 0.71503s-0.848 1.1155-0.848 1.9233v5.3866c0 0.88374 0.27596 1.583 0.82703 2.107 0.55191 0.52187 1.2884 0.78467 2.2089 0.78467zm-0.87232-8.3578c0-0.22632 0.080522-0.40829 0.23905-0.55089 0.1623-0.13969 0.3699-0.20809 0.62614-0.20809 0.27889 0 0.50368 0.068395 0.67521 0.20809 0.17069 0.14259 0.25624 0.32456 0.25624 0.55089v5.6614c0 0.27772-0.084296 0.49783-0.25289 0.65742-0.16817 0.15959-0.3938 0.23793-0.67898 0.23793-0.27763 0-0.49236-0.075856-0.64124-0.23503-0.14888-0.15627-0.22395-0.37472-0.22395-0.66032v-5.6614h4.194e-4zm-7.4579 8.095h2.3674v-6.6728l2.7554-8.2438h-2.406l-1.4653 5.6316h-0.14888l-1.5375-5.6316h-2.385l2.8195 8.5062v6.4104h4.193e-4z" fill="#fff"/>
</g>
</svg>
