<?xml version="1.0" encoding="UTF-8"?>
<!DOCTYPE svg  PUBLIC '-//W3C//DTD SVG 1.1//EN'  'http://www.w3.org/Graphics/SVG/1.1/DTD/svg11.dtd'>
<svg enable-background="new 0 0 50 50" version="1.1" viewBox="0 0 50 50" xml:space="preserve" xmlns="http://www.w3.org/2000/svg"><path d="M45,1H5C2.8,1,1,2.8,1,5v40c0,2.2,1.8,4,4,4h40c2.2,0,4-1.8,4-4V5C49,2.8,47.2,1,45,1z" fill="#527FA3"/><path d="m36 10h-22.5c-1.9 0-3.5 1.6-3.5 3.5v23c0 1.9 1.6 3.5 3.5 3.5h23c1.9-0.1 3.5-1.6 3.5-3.5v-23c0-1.9-2.1-3.4-4-3.5zm-11 9.5c3 0 5.5 2.5 5.5 5.5s-2.5 5.5-5.5 5.5-5.5-2.5-5.5-5.5 2.5-5.5 5.5-5.5zm11 14.5c0 1.1-0.9 2-2 2h-18c-1.1 0-2-0.9-2-2v-11.5h2.4c-0.3 0.8-0.4 1.6-0.4 2.5 0 5 4 9 9 9s9-4 9-9c0-0.9-0.1-1.7-0.4-2.5h2.4v11.5zm0-19v3c0 0.5-0.4 1-1 1h-3c-0.5 0-1-0.4-1-1v-3c0-0.6 0.4-1 1-1h3c0.6 0 1 0.5 1 1z" fill="#fff"/></svg>
