<?xml version="1.0" encoding="UTF-8"?>
<!DOCTYPE svg  PUBLIC '-//W3C//DTD SVG 1.1//EN'  'http://www.w3.org/Graphics/SVG/1.1/DTD/svg11.dtd'>
<svg enable-background="new 0 0 128 128" version="1.1" viewBox="0 0 128 128" xml:space="preserve" xmlns="http://www.w3.org/2000/svg"><circle cx="64" cy="64" r="62" fill="#F6F3E0"/><polygon points="34 75.6 70.9 92.4 70.9 75.6" fill="#E7E8E3"/><polygon points="44 75.6 34 75.6 71.5 92.4 69.6 87.1" fill="#F9FAF8"/><path d="m71.9 92.4v-16.8c0-0.6-0.4-1-1-1h-36.9c-0.5 0-0.9 0.3-1 0.8v0.2c0 0.4 0.2 0.7 0.6 0.9l36.9 16.9c0.3 0.1 0.7 0.1 1-0.1s0.4-0.5 0.4-0.9zm-33.3-15.8h31.3v14.3l-31.3-14.3z" fill="#2D2E2D"/><path d="m70.9 92.4h48.2c2.7-5.2 4.7-10.9 5.8-16.9h-54v16.9z" fill="#AB8C66"/><g opacity=".1"><path d="m70.9 92.4h48.2c0.9-1.8 1.8-3.7 2.6-5.6h-50.8v5.6z" fill="#030505"/></g><path d="m69.9 75.6v16.9c0 0.6 0.4 1 1 1h47.6c0.4-0.7 0.7-1.3 1-2h-47.6v-14.9h52.8c0.1-0.7 0.2-1.3 0.4-2h-54.2c-0.5 0-1 0.4-1 1z" fill="#2D2E2D"/><path d="M64,44c0-4.7-3.8-8.4-8.4-8.4H8.9c-2.7,5.2-4.7,10.9-5.8,16.9h52.5C60.2,52.4,64,48.7,64,44z" fill="#AB8C66"/><g opacity=".1"><path d="m63.5 46.8h-59.1c-0.5 1.8-1 3.7-1.3 5.6h52.5c3.6 0 6.8-2.3 7.9-5.6z" fill="#030505"/></g><path d="m65 44c0-5.2-4.2-9.4-9.4-9.4h-46.2c-0.4 0.7-0.7 1.3-1 2h47.2c4.1 0 7.4 3.3 7.4 7.4s-3.3 7.4-7.4 7.4h-52.3c-0.1 0.7-0.2 1.3-0.4 2h52.6c5.3 0 9.5-4.2 9.5-9.4z" fill="#2D2E2D"/></svg>
