<?xml version="1.0" ?><!DOCTYPE svg  PUBLIC '-//W3C//DTD SVG 1.1//EN'  'http://www.w3.org/Graphics/SVG/1.1/DTD/svg11.dtd'><svg enable-background="new 0 0 24 24" height="24px" id="Layer_1" version="1.1" viewBox="0 0 24 24" width="24px" xml:space="preserve" xmlns="http://www.w3.org/2000/svg" xmlns:xlink="http://www.w3.org/1999/xlink"><path d="M11.472,6.777l1.895,5.422H9.375L11.472,6.777z M24,2.5v19c0,1.1-0.9,2-2,2H2c-1.102,0-2-0.9-2-2v-19c0-1.102,0.898-2,2-2  h20C23.099,0.5,24,1.398,24,2.5 M20.722,19.512l-0.006-0.283l-0.283-0.018c-0.016,0-0.4-0.029-0.883-0.541  c-0.539-0.574-0.822-1.277-0.824-1.281L12.974,2.311h-1.785L5.23,17.49c-0.002,0.006-0.338,0.668-0.707,1.041  c-0.361,0.365-1.135,0.701-1.143,0.705l-0.182,0.078v1.484h5.984v-1.588H8.884c-0.711,0-1.266-0.189-1.484-0.508  c-0.145-0.211-0.148-0.502-0.012-0.865c0.365-0.957,0.9-2.336,1.174-3.039h5.561c0.295,0.803,0.883,2.398,1.045,2.844  c0.143,0.396,0.092,0.875-0.129,1.189c-0.176,0.252-0.436,0.379-0.77,0.379h-0.301v1.588h6.754V19.512z"/></svg>