<?xml version="1.0" ?><svg id="Layer_1" style="enable-background:new 0 0 128 128;" version="1.1" viewBox="0 0 128 128" xml:space="preserve" xmlns="http://www.w3.org/2000/svg" xmlns:xlink="http://www.w3.org/1999/xlink"><style type="text/css">
	.st0{fill-rule:evenodd;clip-rule:evenodd;}
	.st1{fill-rule:evenodd;clip-rule:evenodd;fill:#7ACED7;}
</style><path class="st0" d="M19.8,0h82.9c1.1,0,2,0.9,2,2v124c0,1.1-0.9,2-2,2H19.8c-1.1,0-2-0.9-2-2V2  C17.8,0.9,18.7,0,19.8,0L19.8,0z M43,4.8c-2.2,0-4,1.8-4,4s1.8,4,4,4s4-1.8,4-4S45.2,4.8,43,4.8L43,4.8z M52.5,6.8v4H70v-4H52.5  L52.5,6.8z M50.7,107.3c-0.5,0-1,0.4-1,1v6.4c0,0.5,0.4,1,1,1h21.1c0.5,0,1-0.4,1-1v-6.4c0-0.5-0.4-1-1-1H50.7L50.7,107.3z   M25.8,17.5v78.1h70.9V17.5H25.8z" id="XMLID_16_"/><path class="st1" d="M43,4.8c2.2,0,4,1.8,4,4s-1.8,4-4,4s-4-1.8-4-4S40.8,4.8,43,4.8L43,4.8z M52.5,6.8H70v4H52.5  V6.8L52.5,6.8z M25.8,17.5h70.9v78.1H25.8V17.5L25.8,17.5z M50.7,107.3h21.1c0.5,0,1,0.4,1,1v6.4c0,0.5-0.4,1-1,1H50.7  c-0.5,0-1-0.4-1-1v-6.4C49.7,107.8,50.2,107.3,50.7,107.3z" id="XMLID_11_"/></svg>